Coordinates
version=1
nRows=20
nColumns=34
inDegrees=yes

Units are S.I. units (second, meters, Newtons, ...)
If the header above contains a line with 'inDegrees', this indicates whether rotational values are in degrees (yes) or radians (no).

endheader
time	pelvis_tilt	pelvis_list	pelvis_rotation	pelvis_tx	pelvis_ty	pelvis_tz	hip_flexion_r	hip_adduction_r	hip_rotation_r	knee_angle_r	ankle_angle_r	subtalar_angle_r	mtp_angle_r	hip_flexion_l	hip_adduction_l	hip_rotation_l	knee_angle_l	ankle_angle_l	subtalar_angle_l	mtp_angle_l	lumbar_extension	lumbar_bending	lumbar_rotation	arm_flex_r	arm_add_r	arm_rot_r	elbow_flex_r	pro_sup_r	arm_flex_l	arm_add_l	arm_rot_l	elbow_flex_l	pro_sup_l
      0.00000000	      4.76800897	     -1.17359498	   -177.05820471	      0.05409198	      1.09266170	      0.09103711	     15.53414660	      0.95424210	     -3.25348367	     15.23073054	     -1.76267998	     -6.67834125	      0.00000000	      3.65411120	     -0.46460388	      1.66077752	     30.95974206	     -1.90476008	    -14.74355386	      0.00000000	    -10.32546557	      2.01795073	     -6.83922118	      1.74945681	     -6.31889212	      2.18879184	     39.91080710	     81.04196218	      0.49085903	    -10.90769034	      9.30543993	     79.44324272	     92.15164440
      0.00833330	      5.78162441	     -1.32237087	   -176.90854936	      0.05239540	      1.08905125	      0.09252529	     16.36543331	      1.24433498	      0.94279665	     15.23287564	     -1.96287209	     -8.80814405	      0.00000000	      4.56262217	     -0.89095228	     -0.77744089	     31.99788090	     -3.19864715	    -12.45859725	      0.00000000	     -8.31214382	      1.12958738	     -6.68292870	      0.88165832	     -5.61124880	      0.99378921	     40.89987533	     82.08763893	     -1.96224959	    -10.88953692	      8.41841409	     81.32503648	     91.56955128
      0.01666670	      6.63079965	     -0.60007589	   -177.08831568	      0.05155628	      1.08824845	      0.09332960	     17.40370779	      1.67048527	      1.42681283	     16.11322435	     -0.93189055	     -7.98809948	      0.00000000	      5.88184747	     -1.86608028	     -1.39769475	     33.45085595	     -4.17868192	    -10.75430869	      0.00000000	     -7.32981383	      2.13782313	     -6.54706729	      0.95976708	     -5.53624411	     -0.48452542	     41.79503705	     83.28011697	     -2.54230816	    -10.17726662	      7.19906695	     80.73046949	     91.41503094
      0.02500000	      7.38444717	      0.02696932	   -176.98721127	      0.05101197	      1.08666417	      0.09369758	     18.14647028	      2.14829694	      1.38080700	     16.17869660	     -0.45258668	     -7.55260332	      0.00000000	      7.56852220	     -2.59404194	     -1.35132609	     35.25694886	     -5.14498726	    -11.22914929	      0.00000000	     -6.32191351	      3.01325164	     -6.71963146	      1.12510601	     -5.34912835	     -1.94225064	     42.26932331	     84.78181273	     -3.10704304	     -9.86596165	      6.83508669	     79.97119635	     91.87857288
      0.03333330	      7.31292217	      0.31265105	   -176.98159514	      0.05065822	      1.08592136	      0.09315183	     18.05330783	      2.60878418	      1.80738500	     16.51559715	      0.23343900	     -7.58435469	      0.00000000	      8.29830264	     -3.05480798	     -1.28212673	     37.17172079	     -5.08300213	    -11.57473474	      0.00000000	     -6.65972448	      3.38138053	     -6.71578852	      1.56228737	     -5.15922640	     -2.02716890	     42.60359276	     84.95337297	     -3.50301359	     -9.91644428	      7.01792656	     79.67162086	     91.98631836
      0.04166670	      8.15174015	      0.42357856	   -176.87950344	      0.05033820	      1.08338872	      0.09323764	     19.04923721	      2.75364587	      1.63428053	     17.12144160	      1.01642084	     -6.96497563	      0.00000000	     10.13808459	     -3.10687939	     -0.87523761	     39.21066278	     -5.40584677	    -12.69281639	      0.00000000	     -5.44059501	      3.54126168	     -6.63845943	      0.98463835	     -5.28285771	     -2.94245309	     44.26748838	     87.53278605	     -4.05547872	     -9.85646993	      7.16693589	     78.66821284	     93.74539264
      0.05000000	      7.96760399	      0.42679940	   -176.83046245	      0.05045518	      1.08217512	      0.09295930	     18.84558806	      2.86675442	      1.70326939	     17.52842819	      1.09567428	     -7.00756234	      0.00000000	     10.68479378	     -3.21779272	     -0.79555472	     40.95374707	     -5.55907813	    -12.88568559	      0.00000000	     -5.84125852	      3.65955515	     -6.76014580	      1.50358875	     -5.26238616	     -2.97844769	     44.73385204	     87.72157519	     -4.47121735	    -10.17786668	      7.24430640	     78.05985549	     93.89745626
      0.05833330	      8.40363587	      0.29849852	   -176.73383100	      0.05019538	      1.07972770	      0.09307216	     19.31915721	      2.74195140	      1.63664273	     18.00787070	      1.21147840	     -6.86821827	      0.00000000	     11.86181864	     -3.05640789	     -0.60443282	     42.61183431	     -6.18954516	    -13.37494715	      0.00000000	     -5.18074057	      3.64041551	     -6.46808225	      0.92976188	     -5.54913657	     -3.74821764	     46.63315633	     94.48629126	     -4.69253552	    -10.40029729	      7.69312380	     76.27418467	     99.53154617
      0.06666670	      8.15810356	      0.20523157	   -176.72927685	      0.04984022	      1.07819438	      0.09280785	     18.94573132	      2.72487777	      1.70257482	     18.24440895	      1.19170592	     -6.85987522	      0.00000000	     12.22612584	     -3.03223781	     -0.52524164	     44.21609303	     -6.51222482	    -13.38164838	      0.00000000	     -5.43367796	      3.41909562	     -6.18298963	      1.07722872	     -5.59033070	     -3.75708119	     46.76379272	     94.51123472	     -5.29024151	    -10.56551616	      7.62347044	     75.85427385	     99.54420468
      0.07500000	      8.15504593	      0.16220131	   -176.65256075	      0.04987008	      1.07629725	      0.09304176	     18.88285666	      2.67369885	      1.69066261	     18.58315923	      0.81196096	     -7.29536188	      0.00000000	     12.97814503	     -2.93560975	     -0.20922760	     45.99361563	     -7.65022999	    -14.22512558	      0.00000000	     -5.46809278	      3.77336481	     -6.65640625	      1.27528255	     -5.67099132	     -3.37778838	     48.37086567	     94.82697474	     -5.83726422	    -10.38250689	      6.75792129	     73.77685768	     99.71360791
      0.08333330	      8.33986664	      0.03260754	   -176.67403092	      0.04980239	      1.07474237	      0.09301592	     18.97868125	      2.50677002	      1.52785050	     18.93066010	      0.01400055	     -7.59703271	      0.00000000	     13.88358420	     -2.76144739	      0.00993624	     47.70665350	     -8.79230321	    -14.67834883	      0.00000000	     -5.27635479	      3.72635395	     -6.44116683	      1.12881145	     -5.95470170	     -2.85124622	     49.57818053	     95.22969407	     -6.39677942	    -10.24748324	      6.13459102	     72.44899317	    100.00765046
      0.09166670	      8.47570790	     -0.09279992	   -176.69459391	      0.04980271	      1.07319746	      0.09301799	     18.94946081	      2.32465548	      1.32451278	     19.25621938	     -0.77409027	     -7.96074546	      0.00000000	     14.77814723	     -2.59924050	      0.21664127	     49.48641748	     -9.88008215	    -15.06453669	      0.00000000	     -5.19908954	      3.69862053	     -6.41433940	      1.16665804	     -6.10137886	     -2.45857234	     50.61526419	     95.58112323	     -7.02589439	    -10.29515355	      5.82954725	     71.24993530	    100.33952219
      0.10000000	      8.64871841	     -0.19674972	   -176.69644735	      0.05001335	      1.07185486	      0.09296581	     18.92190116	      2.16608809	      1.15944773	     19.61384181	     -1.54014638	     -8.38219429	      0.00000000	     15.77373850	     -2.45347202	      0.43524070	     51.26495080	    -11.09526083	    -15.68197557	      0.00000000	     -5.14390952	      3.68406071	     -6.32161436	      1.17969923	     -6.29262676	     -2.05488199	     51.73499435	     95.93462725	     -7.62209454	    -10.28439943	      5.52194004	     70.04271051	    100.69777608
      0.10833330	      8.83468669	     -0.31198915	   -176.70562472	      0.05029030	      1.07046432	      0.09283896	     18.89795396	      1.97258064	      0.96822041	     20.02408199	     -2.36446031	     -8.92525729	      0.00000000	     16.84185135	     -2.27175466	      0.67898422	     53.03509292	    -12.34623423	    -16.44947886	      0.00000000	     -5.08835997	      3.65710852	     -6.25338197	      1.16608239	     -6.48393320	     -1.67946903	     52.88652402	     96.29172321	     -8.19636899	    -10.33599007	      5.24992864	     68.86200808	    101.08523526
      0.11666670	      9.02612800	     -0.46854404	   -176.66497259	      0.05060821	      1.06887294	      0.09268066	     18.87246510	      1.73357698	      0.80749467	     20.39189174	     -3.29019594	     -9.46298610	      0.00000000	     17.99807996	     -2.05535137	      0.85763529	     54.78697640	    -13.50196873	    -17.31073266	      0.00000000	     -5.10366480	      3.53051055	     -6.18561970	      1.18685051	     -6.61667256	     -1.36813302	     54.00988119	     96.61963265	     -8.78532521	    -10.42100959	      5.04671756	     67.75817337	    101.45324472
      0.12500000	      9.21844600	     -0.61339386	   -176.60347728	      0.05081630	      1.06710959	      0.09237083	     18.88192061	      1.52162692	      0.66460662	     20.75145387	     -4.32555005	    -10.05063365	      0.00000000	     19.18613642	     -1.82777365	      1.07425786	     56.44305898	    -14.57629456	    -18.40188988	      0.00000000	     -5.00659658	      3.39710675	     -6.10869640	      1.10046128	     -6.79503118	     -1.08527311	     55.17173183	     96.97790527	     -9.38723528	    -10.62492010	      4.81808976	     66.61262840	    101.85113730
      0.13333330	      9.40557146	     -0.74839994	   -176.52903707	      0.05104390	      1.06512105	      0.09196484	     18.92796890	      1.36599991	      0.67193088	     21.09050961	     -5.10802235	    -10.38562372	      0.00000000	     20.41529245	     -1.63964067	      1.21394438	     58.04337620	    -15.26470506	    -19.38034312	      0.00000000	     -5.09274129	      3.26061751	     -6.00361184	      1.15866781	     -6.84157519	     -0.87786149	     56.24957766	     97.27911858	    -10.00764679	    -10.81208903	      4.69276718	     65.60244323	    102.17783109
      0.14166670	      9.53562332	     -0.77397462	   -176.47599392	      0.05106092	      1.06282510	      0.09157305	     18.98556716	      1.36588368	      0.80967152	     21.54364145	     -5.45853226	    -10.71775035	      0.00000000	     21.61646206	     -1.53348416	      1.41540671	     59.62624345	    -15.52945740	    -20.41355991	      0.00000000	     -5.15186909	      3.20785179	     -5.79275590	      1.16954050	     -6.95501639	     -0.70514252	     57.27702307	     97.55094431	    -10.64744793	    -11.08667061	      4.53319799	     64.68990707	    102.44513590
      0.15000000	      9.76641221	     -0.69982771	   -176.39741656	      0.05094159	      1.06057303	      0.09105563	     19.17935337	      1.51110478	      1.07032300	     22.06280357	     -5.48947326	    -11.07554125	      0.00000000	     22.92616731	     -1.51249051	      1.66814716	     61.10065104	    -15.72594271	    -21.46968953	      0.00000000	     -4.92751883	      3.24463961	     -5.46601832	      0.92145112	     -7.26258065	     -0.52155627	     58.55488704	     97.95034854	    -11.30082527	    -11.44252175	      4.30659726	     63.73545726	    102.79590771
      0.15833330	      9.61423898	     -0.59065743	   -176.38751051	      0.05112461	      1.05904940	      0.09058980	     19.02015764	      1.73108274	      1.33909911	     22.68213526	     -4.91707871	    -11.33302893	      0.00000000	     23.80959773	     -1.57435736	      1.85156645	     62.41976443	    -15.23728254	    -22.15735666	      0.00000000	     -5.29970776	      3.28381006	     -5.08125339	      1.20206295	     -7.31888087	     -0.52535490	     58.91116592	     98.03281571	    -11.87635588	    -11.86119880	      4.23452225	     63.25611469	    102.86536329
